<?xml version="1.0" encoding="utf-8"?>
<!-- Generator: Adobe Illustrator 23.0.1, SVG Export Plug-In . SVG Version: 6.00 Build 0)  -->
<svg version="1.1" id="图层_1" xmlns="http://www.w3.org/2000/svg" xmlns:xlink="http://www.w3.org/1999/xlink" x="0px" y="0px"
	 viewBox="0 0 578 672" style="enable-background:new 0 0 578 672;" xml:space="preserve">
<style type="text/css">
	.st0{fill:#0F3463;stroke:#2CA6E0;stroke-miterlimit:10;}
	.st1{fill:#0F3463;}
	.st2{fill:none;stroke:#2CA6E0;stroke-miterlimit:10;}
	.st3{filter:url(#Adobe_OpacityMaskFilter);}
	.st4{mask:url(#SVGID_1_);}
</style>
<g>
	<g>
		<g>
			<g>
				<path class="st0" d="M243.4,12.2l5-2.5l4.1-0.3l5.4-0.6l6-1.6l0.6,4.8l-2.2,3.2l-0.3,2.5l5.7,1h4.7l0.3,2.5l0.3,7.6l-2.2,2.9
					l-2.5,5.1l-0.3,4.1l4.4,2.2l1.3,3.5l-0.9,5.7l-2.5,5.4l-1.9,3.2l1.3,9.8l1.9,3.8l3.8,2.2h5h4.7l2.8,1.9l2.8,5.4l1.9,3.8l5.7,0.3
					l0.9,4.4l-0.3,2.2l-1.9,2.5v5.1l-0.8,2.2v2.7l0.8,1.1v7.9l2.8,0.6l0.6,2.5l1.3,3.5l1.9,1.9l10.1,1.3l4.7,2.9l8.5,6l0.3-1.6
					l6-0.6l2-3.6l1.7,0.5l0.3,3.3l-2.5,3.3l-1.6,3.2v4.4l0.6,2.5v3.5l1.3,3.5l2.5,0.3l5.7,1.9l0.6,3.5l4.7,0.3l0.9,2.5l-2.5,2.5
					l0.6,1.4l0.9,0.5l-0.3,4.1L344,173l-1.3,4.4l4.1,6.3l1.3,7l-2.8,4.8l-2.5,4.4v3.8l-0.3,1.9l-9.1-7.9l-6.6-0.3l-4.1,0.6l-1.3,4.4
					l-1.3,4.8l-2.2,2.2l-5.4,4.1l-0.8,0.6c-1.3,1-3,1.1-4.4,0.4l-1.8-1l-3.5,1.6l-9.8,3.2l-2.7-3.2l-2.4-0.3h-3.2l-3.2-1.9l-2.2-2.5
					l-4.1,1l-4.7-3.2l-4.1,0.3H262l-6.3,1.9l-0.9,2.5H246l-2.5-1l0.3-9.8l5.4-22.5l-3-8.6l-0.2-8.9l-0.9-6l0.9-6l3.6-3.6l-3.3-6.5
					l-0.4-0.7c-1.1-1.9-1-4.2,0.2-6l1.8-2.8c0.6-1,2.2-6,2.2-6l-1.6-5.1l-9.1-0.5l-0.4-0.7c-0.9-1.5-0.6-3.5,0.6-4.7l0.7-0.7
					l3.2-4.1l-1.6-4.4l2.5-8.6l3.5-5.1l-0.6-6l-6.9-4.8v-6.3l-6-4.1l-5-1.6l-7.3-5.1l-1.6-5.7l1.9-7l9.5-6.3L239,37l2.8-9.5
					L243.4,12.2z"/>
				<path class="st0" d="M245.7,213.1l9.1-0.2l1.1-2.5l6.2-2l4.8,0.2l2.8-0.1l4.6,2.9l4.2-0.7l2.3,2.5l3.2,1.9l5.3,0.2l2.7,3.2
					l9.2-2.9l4-1.7l2.5,0.9c1.4,0.5,2.9,0.2,4-0.7l7-5.8l1.5-1.3l0.9-3.7l1.5-5.1l3.2-0.5l7.5,0.1l6.5,5.8l-2.7,3.5l-2.6,1.2
					l-4.8-0.1l-0.1,1.8l-1.8,2.7l1.8,2.1l3.4,2l2.7,1l3.6,3c0,0-0.9,3.5-0.9,3.8s-2.5,12.5-2.5,12.5l-1.1,9.7l-0.5,5.1l1.7,3.6
					l1.3,2.6l2.3,4.8l2.6,2.2l1.9,3.1l-1.8,3.4l-2.2,2.2l-4.8,4.5l-3.3,3.5l-8.5,3l-6.8,4.2l-2.7,3.5l-0.1,4.3l2.5,3.8l3.2,0.1
					l4.5,3l-3.5,3.5l-0.4,5l-0.1,3.4l-2,4.2l-0.6,2.2l-4,0.6l0.2,3.8l2.9,3.4l-3.3,2.5l-2.9,3.6l-3.2,2.7l-3.7,1.9l-4.9-0.7
					l-4.8-7.9l-7-4.5l-5.6-2.6l-2.8-2.1l-6.2-0.2l-1.9-2.7l-5.1-7.1c0,0-6.9,6.6-7.1,6.9s-2.7,0.8-2.7,0.8l-1.5-2l-1.6-3.4l-2.4-1.9
					l-6.4-0.7l-0.1-1.9l-0.1-3.2l-3.6-3.7l-5.1-0.6l-4-1.1l-1.5-5.6l2.3-6.3l4.9,0.2l1.1-1.9l-0.8-4.7V279l1.5-3.9l3.7,1.6l5,0.7
					l2.3-4.1l-0.1-3.1l-2-5.5l-2.7-3.2l-3.6-2.2l0.2-4.3l3.4-1.6l5-8.1l1.6-1.7l-3.9-4.9l-3.3-2.9l0.4-4.2l0.4-5.1l-0.9-3.3
					l-0.4-4.3L245.7,213.1z"/>
				<path class="st0" d="M336.9,129.2l0.3,3.5l-2.3,3.1L333,140l0.3,3.1l-0.3,1.7l0.7,1.8l-0.1,2.9l1.6,4.3l2.5,0.3l5.4,1.7l1.1,3.2
					l4.1,1l1.4,2.2l-2.6,2.6l2,1.8l-0.5,4.2l-4.4,2.4l-1.4,4.4l3.9,6.4l1.6,7.1l-5.5,9l-0.3,5.8l-2.6-2.2L336,208l-3.8,0.1h-2.4
					l-0.3,2.5l-2,2.4l2.9,2.4l4.3,2l4.6,3.2l-1.6,7.1l-2.8,16.5c0,0-0.3,6-0.3,6.7s2.2,6.4,2.2,6.4l2.8,5l3,3.5l1.4,2.2l-3.9,5.7
					l-4.3,4l3.2,0.6l2.9-0.5l-0.4,8.4c0,0-1.4,2.2-1.4,2.5s0.7,5,0.7,5l1.1,5l3,1.3l4.3-2l2.6,1.1h3c0,0,2.3-4.2,2.4-4.5
					s1.8-7.3,1.8-7.3l1.6-5.6l2.4-4.9l1.9,1.5l1.2,3l2.1-2.9l3.3,1.3l4.9,2.1c0,0,2,4.4,2.1,4.9s2.9,3.6,2.9,3.6l3.2-2.4l1.5,2.7
					l2.5-1.2l-0.1-7.7l2-6.7l4.1-5.9c0,0,2.2-4.7,2.2-5.2s-1.8-10.2-1.8-10.2l2.6-5.4l6.4-2v-5.6l1.5-4.5l4.5-1l0.5-10.3l4.2-3.4
					l4.2-5.3c0,0,2.7-8,2.7-8.5s0.8-6.8,0.8-6.8l4.3-6.1l4.8-1.4l4.7-3.3l4.6-0.5l4.2-3.9l0.5-4.5l-4-3.8l-0.6-5
					c0,0-1.1-4.3-1.1-4.7s-0.3-6.9-0.4-7.3s0-6.6,0.5-7.5s2-5.3,2-5.3v-3l-2.7-3.3l-5.6,0.2l-4.3-3.6c0,0,0.5-4,0.9-4.3
					s4.8-3.4,4.8-3.4l1.6-4.7c0,0-2.4-2.1-2.4-2.5s1.6-4.8,1.6-4.8l-1.8-2.9l-5.2-2.2l-5-4.2l-8.6-9.2H412l-1.8,7.6l-6,4.7l-0.7,5.4
					l-4.7,3.8l-5.1-0.9l-4.9-0.1l-8.9,0.1l-5.1,1.3l-4.4,5l-5.4,3.7l-6.7,0.6l-3.4,2.2c0,0-4.9-2-5.5-2.2s-9.7-3.7-9.7-3.7
					L336.9,129.2z"/>
				<path class="st0" d="M466,172.4l6.3,3.8l-0.6,6l3.2,4.8l5.7,0.3l7.6,5.4h3.5l-0.6,5.4l-7.9,3.2v7.6v4.4l-3.8,3.2l-8.2,3.2
					l-7.3,3.2l-4.4,1.3l-6.9,2.5L449,232l-1.9,5.4l5.4,5.4l-0.3,10.2l3.5,5.4l0.6,9.5l1.6,9.5l-5.4,0.3v6l3.5,3.5l7.6,0.3l3.2,2.2
					l-1.3,6.3l-4.7,4.1l-0.3,2.9l1.9,6l3.2,4.1l0.3,6l-2.8,6.3l-3.8,3.8l-2.2,7.3l-0.3,4.8l-4.1,5.1l-4.1,3.8l-0.3,6.3l1.3,6.7v5.4
					l-4.7,2.9l-4.4-4.4l-2.8-3.8l-4.1-0.6l-0.9,7.3l-2.8,5.7l-3.5,1l-6,1.3l-7.6,5.7l-4.4,3.8l-4.1,5.7l-4.7-3.5l-6.9-1.3l-2.2-4.8
					l7.3-1l2.5-5.1l-7.6-2.5h-9.5l-5.7-1.3l-6.6,2.9l-4.1-4.1l-0.6-4.1l4.4-10.8c0,0,4.4-4.8,4.4-5.7c0-1,3.8-13.3,3.8-13.3
					l1.9-10.2v-6.3l-5,1.9l-2.5,3.5l-1.9,4.8l-3.2-2.5l-3.2,2.2l-3.8-0.3h-6.9l-2.8-1.3l5.7-5.7l1.3-5.7l-2.8-2.2l-2.5-1.6l1.6-4.8
					l-4.7-5.1l-4.1-4.1l-0.3-1.2l4.3-2l2.7,1.1l3-0.1l2.5-4.2l1.8-7.6l1.5-5.2l2.4-5.3l2.2,1.6l1.1,2.6l1.9-2.5l8.3,3.3l0.6,1.4
					l1.7,3.9l2.7,3.2l3.3-2.2l1.4,2.7l2.6-1.1l-0.3-7.9l0.9-2.4l1.2-4.5l5.1-7.6l1.2-3.4l-1.9-9.8l2.8-5.7l6.5-2l-0.2-5.5l1.6-4.8
					l4.5-0.8l0.6-10.2l4.3-3.5l4.4-5.3l2.5-8.5l0.8-6.8l4.4-6l4.9-1.7l4.7-3.1l4.8-0.5c0,0,3.9-3.1,3.9-4.1s0.4-4.5,0.4-4.5l5.1,0.2
					l0.9-6l3.8-0.6L466,172.4z"/>
				<polygon class="st0" points="491.5,192.7 490.9,198.1 483,201.3 483,208.9 483,213.3 479.2,216.5 471.1,219.7 463.8,222.8 
					459.4,224.1 452.4,226.6 449,232 447.1,237.4 452.4,242.8 452.1,253 455.6,258.4 456.2,267.9 457.8,277.4 452.4,277.7 
					452.4,283.7 455.9,287.2 463.5,287.5 466.6,289.8 465.4,296.1 460.6,300.2 460.3,303.1 462.2,309.1 465.4,313.2 465.7,319.3 
					462.9,325.6 459.1,329.4 456.9,336.7 456.5,341.5 461.9,343.1 465.7,347.5 467.1,349.7 469.5,356.1 476.4,355.7 481.1,351 
					483.3,360.2 486.5,362.1 494.1,364.3 498.8,365.6 501,358.1 503.8,353.2 501.3,347.2 505.4,339.6 508.3,337.3 512,338.9 
					516.1,334.2 521.5,327.5 523.4,315.1 523.4,306.9 529.6,297.9 534.1,288.2 537.9,278.7 543.3,269.1 549.9,260.3 557.8,246.3 
					562.5,235.2 557.1,232 550.3,231.6 547.4,230.4 545.5,222.8 542,217.4 540.7,214.3 534.1,212.4 526.9,216.8 522.3,210.1 
					518.7,208.6 520.9,200.3 513.3,201.3 509.5,198.1 509.5,189.2 504.2,187 499.4,185.1 493.8,189.2 				"/>
				<polygon class="st0" points="498.8,365.6 501.6,357.2 503.8,353.2 501.3,347.2 505.4,339.6 508.3,337.3 512,338.9 514.1,346.7 
					518.9,347.9 519.7,354.7 520.2,364.7 519.3,370.3 518.9,378.8 518.4,385.3 518,391.7 522.2,397.4 526.9,402.1 526.4,408.8 
					521.4,411.4 521.4,415.2 531.5,414.3 531.5,420.7 534.4,430.8 538.6,432.1 542.8,426.6 546.6,434.2 547.9,440.1 524.3,479.5 
					521,491.7 518.9,506.5 514.7,515.8 505.8,528.5 488.2,533.2 480.2,541.6 475.6,554.3 468.8,570.4 462.1,569.5 458,564.9 
					451.3,565 442.5,572.6 439.1,578 431,571.2 428.5,565.7 435,548.8 433.3,540.4 436.8,537.5 442.5,536.6 444.5,531.5 
					442.8,524.7 446.6,522.2 450.2,517.9 452.4,511.6 448.3,505.9 449.3,500.8 455.1,497 456.7,493.4 457.4,490 459.2,487.1 
					463.4,484.1 465.9,479.9 466.3,473.5 454.2,479.1 452.8,477.6 457.7,459.8 463.6,448.1 470.7,435 480.2,409.4 488.3,394 
					491.1,383 496,372.6 				"/>
				<path class="st0" d="M365.7,368.2l-6,7.8l-0.9,4.1l-1.3,5.9l9.2,1.3l-11.2,12.1l1.2,5.5l-9.4-0.2l9.4-0.1h-9.2l-6.9,5.9
					l-5.3,7.6l-4.7,8.9c0,0-4.5,5.5-4.5,6.8s-7.4,14.4-7.4,14.4l-8.6,11.4l-1.7,4.2l-1.7,5.8l-7.4,9.6l4.2,3.8l5.7,4l4.7,3.1
					l1.2-3.5l2.4-4.4l6-8.4l4.2-5.8l4.2-4.7l4.2,0.2l5,0.4l4-5.5l-4.4-5.8l4.2,0.4l4.2-0.3l7.1-0.4l11-0.4l5.5-5.1l8.2-0.6l2,3.4
					l1.5,5.7l-1.9,3.6l-0.4,3.7l2.2,5.1l1.8,6.6l4.8,0.8l5.6,1.7l11-0.1l7.6,4.4l11.8-3.8l11.4,11l7.6-1.2l2.5-4.3l3.8-4.2l3.8-9.3
					l2.1-9.7l5.9-12.3l6.7-12.7l5.9-14.8l3.8-10.6l7.1-13.1L493,380l6-14.5l-2.4-0.2L489,363l-6.1-2.9l-0.2-3.4l-1.4-5.7l-4.5,4.8
					l-7.3,0.3l-1.7-5.2l-6.1-7.9l-5-1.3l-8.4,8.8l-0.4,6.2l1.3,5.8l0.4,6.2l-4.9,3.2l-7.2-8.4l-4.2-0.7l-0.9,6.9l-1.9,4.1l-1,1.9
					l-9.4,2.2l-5.7,4.2l-6.3,5.3l-4.1,5.7l-5-3.6l-2.9-0.3l-3.9-1l-2.3-4.7l7.3-0.8l2.7-5.3l-1.7-0.6l-3-0.8l-2.9-1.1l-9.3,0.2
					l-5.5-1.3l-7.1,2.9l-3.6-4.1L365.7,368.2z"/>
				<polygon class="st0" points="230.1,303.9 227.1,307.7 227.2,312.6 222.9,314.1 216.6,318.3 216.6,327.2 212.8,334.4 209,340.3 
					206.5,340.3 202.7,345.8 198.1,347.5 193,343.5 186.5,347 186.8,353.8 177.9,354.6 173.4,356.3 166.5,361.8 164.9,368.6 
					161.5,374.2 155.1,375.1 150.2,386 146.8,397.4 152,398 158.4,393.7 165.1,389.9 167.9,390.2 171.6,394.4 177.1,394.4 
					185.9,392.8 190.6,392.8 194.3,399.1 189.7,403.8 189.7,410.5 192.7,411.8 196.9,412.2 194.8,418.6 195.6,420.7 197.7,422.4 
					204.4,423.2 211.6,423.2 217,420.2 224.2,419 231.3,419.8 238.1,412.2 247.7,409.7 251.1,404.6 257,404.2 259.9,395.7 
					259.9,389.4 263.3,387.3 272.9,388.9 276.7,389.6 281.7,384.6 281.4,380.9 273.9,375.4 278.7,367.7 282.4,362.8 289.8,362.3 
					294.3,360.5 300.3,359.8 306.2,357.6 306.2,350.9 298.6,348.8 298.5,339.8 293.5,331.8 284.7,326.4 278.2,322.5 272.1,322.1 
					265,312.5 255.1,320.2 252.8,315.8 249.6,312.9 243.6,312 243,307.1 239.4,303.4 231.6,302.2 				"/>
				<path class="st0" d="M175.4,398.3l-2.9,0.8l-2.5,2.1c0,0-1.7,0.4-1.7,1.7c0,1.3,0,1.3,0,1.3l-1.9,1.1l-2.3,0.6l-5.5,6.8l4.6,9.3
					l6.3,7.2l2.1,3.4l7.6-1.3l3.8,0.4l4.6,6.3l-5.9,3.8v8.9v11l2.7,14.4l4.7,11.4l8.2,6.8l2.9,0.7l2.8,0.2l-0.7-20.7l5.9-5.5l8-3.4
					l5.4-11l2.5-4.5c0,0,1.9-8.2,2.2-9.4c0.4-2.1,3.4-14,3.4-14l1.7-6.6l-7.1-1.4l-6.8,1.6l-5.9,3l-11.6-0.4h-2l-2.1-1.5l-1.2-2.6
					l2.1-6.3l-4.2-0.4l-2.7-1l-0.1-6.8l4.5-5l-3.8-6.3l-4.5-0.2l-8.9,1.9L175.4,398.3z"/>
				<polyline class="st0" points="281.8,452.7 288.1,447.7 289.9,449.1 296.5,456.6 301.5,457.9 309.9,459.6 306.6,469.7 299,479.5 
					295.2,487.1 288.5,498.1 282.6,503.1 276.7,504.4 261.6,498.9 267.6,486.8 261.6,484.1 259.1,474.8 259.1,468.9 249.1,475.7 
					243.5,475.7 236,473.1 233.4,468.8 233,463 233,455.2 230.9,452.8 227.2,451.2 224.2,449.9 226.3,440.5 228.4,431.7 
					230.9,422.8 231.4,419.9 238.3,412.3 242.3,411.4 248.4,415.5 255.3,420.2 257.3,429.4 263,432 269.6,429.7 274.4,428.1 
					282.2,426.9 289,429 288.1,436.3 283.5,443.9 280.3,449.3 				"/>
				<path class="st0" d="M305.7,548.4l0.4,7.6l4.2,5.1l5.5-10.6l5,4.7c0,0-0.8,5.1-0.8,6.8s-2.5,6.8-2.5,6.8l3.4,2.5l5.9-0.4
					l4.6-3.4l3.8,3.4l2.5-3.8c0,0,3.4-2.1,4.6-2.1c1.3,0,10.5-2.5,10.5-2.5l0.4-2.5l3.8-8l-0.4-6.8l6.3-4.2l6.7,1.3l5,8l8.8-2.1
					l0.4-3l8,0.4l1.7,9.3l-1.3,6.8c0,0,5-1.7,6.3-1.7s9.7,0.4,9.7,0.4s11.8,3.4,13,4.2c1.3,0.8,7.1,1.3,7.1,1.3l3.9-10l2.6-6.8
					l-0.6-2.6l-1.2-6.6l3.9-2.3l5-0.8l2.3-5.3l-1.7-6.2l6.8-6.4l2.9-7.2l-4.2-5.8l0.9-5.3l6-3.6l5.6-8.6l1.3-1.9l1.5-2.3l2.4-4.3
					l0.2-5.9l-12,5.3l-1.3-1.5l-7,9.4L438,488l-6.2-5.2l-5.1-5.4l-12.2,3.4l-7.1-3.8H397l-10.9-2.5l-1.7-6.3l-3.4-5.9l3.4-6.8
					L381,446l-8.4,0.8l-5.5,5.1l-10.9,0.4l-15.3,0.6l4.3,5.6l-4.2,6l-8-1.3l-2.8,1.3c0,0-2.9,3.4-4.2,5.9c-1.3,2.5-6.3,7.6-6.7,8.9
					c-0.4,1.3-4.2,6.3-4.6,8.5c-0.4,2.1-5.5,12.3-5.5,12.3s-2.5,6.8-3.8,8.9s-6.3,11-7.1,12.3c-0.8,1.3-5,8.9-5,8.9l-3.8,9.7l-0.8,3
					l0.8,4.7l11.8,0.4L305.7,548.4z"/>
				<polygon class="st0" points="219.9,536.9 217.4,544.8 216.3,546.8 211.3,546.1 207.6,546.9 195.3,558 190.7,563 189.3,567.9 
					185.5,567 169.1,559 161.1,553.5 170.4,538.7 173.7,535.7 162.4,518.4 163.6,510.8 170,509.6 183,512.4 196,510.3 197.2,497.6 
					201.7,508.2 204.7,516.4 208.3,527.6 209.2,529.7 				"/>
				<path class="st0" d="M223.3,517.1l7-2.2l2.6-1.1l5.5-7.7l10.4-1.9l11,5.4l2.6-7l-0.8-4l5.9-12.1l-5.9-2.5l-2.5-9.3v-5.9
					l-9.8,6.9l-5.9,0.1l-7.5-2.6l-2.3-4.3L233,460l-0.1-4.8l-2-2.4l-6.7-3l-7.8,15.6l-8.1,3.3l-3.2,3.6l-2.7,2.1
					c0,0,0.4,13.1,0.4,14.8s0,5.9,0,5.9l-5-0.7l-0.4,3.2l3.4,8.5c0,0,4.2,9.3,4.2,10.6s4.2,12.7,4.2,12.7l11.2,7.7L223.3,517.1z"/>
				<path class="st0" d="M299,479.5l10.1,7.6l4.7,3.2l-5.9,12.6l-8,15.5l-8,13.6l-3.3,10.3l0.6,5.6l15.8,0.4l1.1,8.1l-5.5,11
					c0,0-2.1,8.5-2.1,9.7s-6.1,6.2-6.1,6.2l-2.5,0.4l-8.6-3.3l-2.2,7.8l-2.4,7l-5.5,4.2l-11.8,0.8c0,0-3,2-5.1,2.9
					c-2.1,0.8-11.2-4.1-11.2-4.1l-7.1,1l-4.6-3.8l-8.4-1.7l-12.2-0.8l-10-2.6l-4.3,1l-8.7-1.9l-4.7-1.5l3.4-9.6l4.5-16l6.3-6.8
					l10.5-9.2l3.6-1.1l5,1.2l3.8-10.2l1.6-9.8l1.7-10.1l9.2-3l5.9-8l10.5-1.7l10.8,5.3l2.6-7l-0.9-3.8l15.3,5.5l5.8-1.4l5.8-4.9
					l6.1-9.8L299,479.5z"/>
				<polygon class="st0" points="169.6,432.4 159.2,433.3 155.7,441.8 157.3,447.3 153.6,452.4 160.3,460 153.1,463.8 148.5,461.3 
					145.2,467.2 139.7,472.3 145.2,479.5 151,481.1 159.4,481.1 167,481.1 176.7,487.1 180.9,487.1 180.9,498.9 181.7,506.5 
					183,512.5 196,510.3 197,502.8 197.9,494.4 189,487.5 184.4,476.6 182.9,467.7 182.1,460 181.7,448.4 181.6,442.3 187.6,438.3 
					183,431.7 179.3,431.2 171.8,432.6 				"/>
				<path class="st0" d="M80.6,428.5l6.1,1.3l4.5-6.6l2.1-1.7l4.3,7l3.2,4.9l3.1,3.6l-5.1,5.3l-2.9,2.5l1.9,7.6l5.6-1.6
					c0,0,3.4-3.4,4.7-3.4s6.1,3.8,6.1,3.8l0.9,12.7l1.7,5.1l4.4,5.2l3.3,8.2l1,4.7l-0.6,5l-8.7,8.5l-11.7,14.8l-4.3,2l-5.5,3.2
					l-7.1,3.6L76,524l-0.3-1.9l-2.1-13.5l2.9-10.7l18.7-10.5L95,475.7l-6.7-11l-3.6-15.6l-5.3-16.6L80.6,428.5z"/>
				<polygon class="st0" points="76.1,523.9 72.7,529.8 61.6,525.1 49.1,513.3 43.4,510.6 29.2,513.6 17.1,527 14.3,538.3 
					17.1,549.8 24.6,551.9 35.7,549.2 49.6,550.1 63.9,551.8 73.2,555.6 82,556.9 92.1,543.3 106.4,529.8 112.8,522.2 104.8,515.1 
					87.9,523.9 				"/>
				<path class="st0" d="M31.6,571.2L22.4,583l-9.5,9.1l-3.8,7.3l3.2,7.3c0,0,6.8,10.9,6.8,12.2s0,6.8,0,6.8s10.8-5,12-5
					c1.3,0,10.5,0,10.5,0l4.8,0.8l2.9,3l6.1-1.9l10.7-2.8l10.7-3.1l13.2-3.2l-4.7-9.1l-2.3-0.6l-9.3,1.2l-11.6,2.2l-5.5,3.3
					l-2.4-2.7l-3.9-0.7l-7.6-4l-2.7-11l0.6-12.5l-4.4-5.2L31.6,571.2z"/>
				<polygon class="st0" points="114.1,450.9 118.6,447.7 121.3,444.8 124.9,440.4 130.1,440 134.6,437.2 142.2,440.4 148.3,444 
					151.4,447.4 153.6,452.1 160.3,460.1 156.2,462.2 153,463.6 148.4,461.1 145.4,466.9 142.1,470 139.8,472.2 145.6,479.8 
					147,480.1 152.1,481.2 160.4,481.2 166.9,480.9 176.6,486.9 180.9,487 180.9,494.8 181.6,507 182.8,512.4 170,509.6 
					163.3,510.9 161.4,507.7 159.8,501.6 158.9,498.2 152.6,497.9 147.5,497.7 144.2,499 140.9,500.7 135,499.8 129.3,495.3 
					124.9,491.8 125.5,486.4 124.6,482.3 121.1,474.1 116.7,468.4 115.1,463.9 				"/>
				<polyline class="st0" points="112.8,522.4 121.7,529.9 132.6,539.1 140.9,545.8 151.4,553.7 146.3,562.9 143.5,572.7 
					142.5,579.1 141.3,587 134.5,586.5 132.1,582.9 127.5,574 123.8,571.1 110,566.1 105,572.1 101.9,575.6 93.1,576.6 83.6,575.6 
					78.6,571.8 76.9,564.3 82.5,556.4 88.9,547.3 96.8,538.4 105.1,531.2 112.3,522.9 				"/>
				<polygon class="st0" points="158.9,498.2 147.6,497.5 141.2,500.6 135.1,500 132.4,497.9 125.7,492.6 124.9,491.8 113,503.8 
					104.7,515 111,520.7 118.6,527.2 132.7,539 151.6,553.7 153.2,550.1 155.3,545.8 157.7,537.8 159.5,532.4 161.8,520.9 
					163.5,511.1 161.3,507.6 				"/>
				<path class="st0" d="M141.3,586.6l6.9-1.2l0.4,9.5l6.9-6.3c0,0,6.4,0.2,7.6,1.2c1.3,1,5,0.4,5,0.4l6.9-1.3l7.8-0.2
					c0,0,3.5-9,3.5-9.9c0-1,2.8-10.8,2.8-10.8l-9.2-3.6l-11-5.2l-7.8-5.6c0,0,4.7-7.9,5.7-8.9c0.9-1,6.7-8.7,6.7-8.7l-3.3-5.1
					l-5.7-12.4l-1.7-2.5l-4,18.4c0,0-2.8,10.2-3.5,11.7s-7.3,14-7.3,14l-4,8.6l-1.6,10.5L141.3,586.6z"/>
				<polygon class="st0" points="55.8,573.7 68.1,569.9 76.8,564.5 81.9,557.1 73.6,555.7 63.7,551.7 55.9,551 51.1,550.4 
					36.4,549.1 30.6,550.5 24.6,551.9 17,549.9 31.5,564.2 31.6,571.2 36,574.3 40.3,579.6 40.1,592.1 42.5,603.2 50.5,607.3 
					54.3,607.6 52.4,591.2 53.4,578.6 				"/>
				<polygon class="st0" points="83.3,575.6 93,576.4 101.9,575.6 106.6,581 110.7,589.2 110.7,595.6 111.6,598.7 112.3,606.3 
					102.5,609.5 90.2,613.6 85.5,604.4 82.9,603.8 73.5,605.1 62.4,607.3 56.8,610.5 54.2,607.6 52.4,591.1 53.3,578.4 56.1,573.7 
					68.1,569.9 76.9,564.4 78.4,571.6 				"/>
				<path class="st0" d="M148.2,585.4l0.3,12.1l-5.3,10.6l-5.4,3.2c0,0-1.8,3.5-3.1,4.8s-5.5,3.6-5.5,3.6l-7.6-4.1l-2.2-7.9
					l-7.3-1.3l-0.2-5.2l-0.3-3.1l-0.9-2.5V589l-1.3-3.3l-4.7-6.7l-2.8-3.5l6-6.3l2.2-3.2l13.2,5.1l4.1,2.9c0,0,2.2,5.1,2.5,6
					c0.3,1,4.4,6.7,4.4,6.7l6.9,0.3L148.2,585.4z"/>
				<path class="st0" d="M129,623.7l-1.3,9.5l-8.2-1.3l-4.3-0.5l-4.3,0.2l-12-0.6h-3.5l1.3-7.6l-5.7,3.2L78.2,626l-2.2-1l-4.1,6.3
					l-10.6-1.1l-10.5-1l-1.6-4.7c0,0,12.5-3.9,15.7-4.5s25-6.5,25-6.5l3.1-0.9l5.1-1.7l13.7-4.4l7.6,1.1l2.2,7.9l7.7,4.2L129,623.7z
					"/>
				<path class="st0" d="M127.7,633.3c0,0,0.6,7,0.3,7.9c-0.3,1-6,8.9-6,8.9l-9.1,3.5l-12.3-1.9l-7.1-4.2l-0.2-5.9l0.9-6l1.3-4.4
					l13.7,0.7l5.5-0.4l9.5,1.3L127.7,633.3z"/>
				<path class="st0" d="M50.9,629.3l21,2.1l4.3,5.2l-1.3,5.2l-4.3,3.6l-0.9,8.5l4.2,5.4l-5.2,5.2l-13.2-2.2l-5.7-7.3
					c0,0-2.8-5.3-3.1-6.3s0.9-12.6,0.9-12.6L50.9,629.3z"/>
				<path class="st0" d="M71.9,631.4l4-6.3l3.2,1l12.3,0.6l5.4-3.2l-1.3,7.6c0,0-2.5,8.6-2.2,10.5s-0.1,6-0.1,6l-12.5,9.5L74,659
					l-4.3-5.4l0.9-8.2l2.8-2.5l1.6-2.3l1.3-3.7L71.9,631.4z"/>
				<g>
					<g>
						<polygon class="st1" points="313.8,292.5 316.6,288.8 323.4,284.7 330.1,281.9 336,277.8 339.2,278.5 341.9,278.1 
							341.5,286.3 340.1,288.7 341,294.6 341.5,297.4 341.9,298.7 345,300.1 345.3,301.2 348.9,304.9 354.1,310.7 352.5,315.1 
							357.9,318.9 356.8,324.3 350.9,330.4 356.7,331.5 364.5,332.3 367.4,329.8 370.9,332.3 372.6,327.7 376.8,323 380.2,322.1 
							380.4,328.9 378.6,337 375.5,348.9 373.4,354.3 370.2,357.6 365.5,368.3 359.7,375.9 357.4,386 366.5,387.2 355.8,399.1 
							356.6,404.6 347.4,404.6 339.8,410.9 333.1,421.9 325.9,433.8 320.4,445.2 311.6,458.3 309.8,459.8 296.8,456.6 291,451.1 
							288.1,447.7 281.8,452.8 280.1,449.4 288.1,436.3 289,428.8 282.2,426.7 272.9,428.5 263,432.1 257.3,429.6 255.3,420.2 
							242.3,411.4 243.6,410.6 247.9,409.5 250.7,404.6 257.1,404.4 259.9,395.5 260.2,389.3 263.6,387.4 276.9,389.4 281.8,384.6 
							281.6,380.8 274.2,375.4 276.7,370.3 282.3,362.6 289.8,362.3 294.5,360.3 300.2,360 306.2,357.6 306.2,351 298.7,348.7 
							298.6,342.6 298.6,340 303.4,340.8 307.5,338.4 313.4,332.1 316.2,329.7 313.4,326.2 313.4,322.6 317.2,321.8 320,315.4 
							320.3,307.4 323.9,303.6 319.4,300.6 316,300.6 313.6,296.7 						"/>
						<polygon class="st2" points="313.8,292.5 316.6,288.8 323.4,284.7 330.1,281.9 336,277.8 339.2,278.5 341.9,278.1 
							341.5,286.3 340.1,288.7 341,294.6 341.5,297.4 341.9,298.7 345,300.1 345.3,301.2 348.9,304.9 354.1,310.7 352.5,315.1 
							357.9,318.9 356.8,324.3 350.9,330.4 356.7,331.5 364.5,332.3 367.4,329.8 370.9,332.3 372.6,327.7 376.8,323 380.2,322.1 
							380.4,328.9 378.6,337 375.5,348.9 373.4,354.3 370.2,357.6 365.5,368.3 359.7,375.9 357.4,386 366.5,387.2 355.8,399.1 
							356.6,404.6 347.4,404.6 339.8,410.9 333.1,421.9 325.9,433.8 320.4,445.2 311.6,458.3 309.8,459.8 296.8,456.6 291,451.1 
							288.1,447.7 281.8,452.8 280.1,449.4 288.1,436.3 289,428.8 282.2,426.7 272.9,428.5 263,432.1 257.3,429.6 255.3,420.2 
							242.3,411.4 243.6,410.6 247.9,409.5 250.7,404.6 257.1,404.4 259.9,395.5 260.2,389.3 263.6,387.4 276.9,389.4 281.8,384.6 
							281.6,380.8 274.2,375.4 276.7,370.3 282.3,362.6 289.8,362.3 294.5,360.3 300.2,360 306.2,357.6 306.2,351 298.7,348.7 
							298.6,342.6 298.6,340 303.4,340.8 307.5,338.4 313.4,332.1 316.2,329.7 313.4,326.2 313.4,322.6 317.2,321.8 320,315.4 
							320.3,307.4 323.9,303.6 319.4,300.6 316,300.6 313.6,296.7 						"/>
					</g>
				</g>
			</g>
			<polygon class="st0" points="313.8,292.5 316.6,288.8 323.4,284.7 330.1,281.9 336,277.8 339.2,278.5 341.9,278.1 341.5,286.3 
				340.1,288.7 341,294.6 341.5,297.4 341.9,298.7 345,300.1 345.3,301.2 348.9,304.9 354.1,310.7 352.5,315.1 357.9,318.9 
				356.8,324.3 350.9,330.4 356.7,331.5 364.5,332.3 367.4,329.8 370.9,332.3 372.6,327.7 376.8,323 380.2,322.1 380.4,328.9 
				378.6,337 375.5,348.9 373.4,354.3 370.2,357.6 365.5,368.3 359.7,375.9 357.4,386 366.5,387.2 355.8,399.1 356.6,404.6 
				347.4,404.6 339.8,410.9 333.1,421.9 325.9,433.8 320.4,445.2 311.6,458.3 309.8,459.8 296.8,456.6 291,451.1 288.1,447.7 
				281.8,452.8 280.1,449.4 288.1,436.3 289,428.8 282.2,426.7 272.9,428.5 263,432.1 257.3,429.6 255.3,420.2 242.3,411.4 
				243.6,410.6 247.9,409.5 250.7,404.6 257.1,404.4 259.9,395.5 260.2,389.3 263.6,387.4 276.9,389.4 281.8,384.6 281.6,380.8 
				274.2,375.4 276.7,370.3 282.3,362.6 289.8,362.3 294.5,360.3 300.2,360 306.2,357.6 306.2,351 298.7,348.7 298.6,342.6 
				298.6,340 303.4,340.8 307.5,338.4 313.4,332.1 316.2,329.7 313.4,326.2 313.4,322.6 317.2,321.8 320,315.4 320.3,307.4 
				323.9,303.6 319.4,300.6 316,300.6 313.6,296.7 			"/>
		</g>
	</g>
</g>
<g>
	
		<image style="overflow:visible;opacity:0.75;" width="616" height="719" xlink:href="F4CBD059B7F5F8FB.png"  transform="matrix(1 0 0 1 -22.8316 -24.2617)">
	</image>
	<g>
		<g>
			<g>
				<path class="st0" d="M242.6,11.9l5-2.5l4.1-0.3l5.4-0.6l6-1.6l0.6,4.8l-2.2,3.2l-0.3,2.5l5.7,1h4.7l0.3,2.5l0.3,7.6l-2.2,2.9
					l-2.5,5.1l-0.3,4.1l4.4,2.2l1.3,3.5l-0.9,5.7l-2.5,5.4l-1.9,3.2l1.3,9.8l1.9,3.8l3.8,2.2h5h4.7l2.8,1.9l2.8,5.4l1.9,3.8l5.7,0.3
					l0.9,4.4l-0.3,2.2l-1.9,2.5v5.1l-0.8,2.2v2.7l0.8,1.1v7.9l2.8,0.6l0.6,2.5l1.3,3.5l1.9,1.9l10.1,1.3l4.7,2.9l8.5,6l0.3-1.6
					l6-0.6l2-3.6l1.7,0.5l0.3,3.3L334,136l-1.6,3.2v4.4l0.6,2.5v3.5l1.3,3.5l2.5,0.3l5.7,1.9l0.6,3.5l4.7,0.3l0.9,2.5l-2.5,2.5
					l0.6,1.4l0.9,0.5l-0.3,4.1l-4.4,2.5l-1.3,4.4l4.1,6.3l1.3,7l-2.8,4.8l-2.5,4.4v3.8l-0.3,1.9l-9.1-7.9l-6.6-0.3l-4.1,0.6
					l-1.3,4.4l-1.3,4.8l-2.2,2.2l-5.4,4.1l-0.8,0.6c-1.3,1-3,1.1-4.4,0.4l-1.8-1l-3.5,1.6l-9.8,3.2l-2.7-3.2l-2.4-0.3h-3.2l-3.2-1.9
					l-2.2-2.5l-4.1,1l-4.7-3.2l-4.1,0.3h-3.8l-6.3,1.9l-0.9,2.5h-8.8l-2.5-1l0.3-9.8l5.4-22.5l-3-8.6l-0.2-8.9l-0.9-6l0.9-6l3.6-3.6
					l-3.3-6.5L245,139c-1.1-1.9-1-4.2,0.2-6l1.8-2.8c0.6-1,2.2-6,2.2-6l-1.6-5.1l-9.1-0.5l-0.4-0.7c-0.9-1.5-0.6-3.5,0.6-4.7
					l0.7-0.7l3.2-4.1l-1.6-4.4l2.5-8.6l3.5-5.1l-0.6-6l-6.9-4.8v-6.3l-6-4.1l-5-1.6l-7.3-5.1l-1.6-5.7l1.9-7l9.5-6.3l7.3-6.7
					l2.8-9.5L242.6,11.9z"/>
				<path class="st0" d="M244.9,212.8l9.1-0.2l1.1-2.5l6.2-2l4.8,0.2l2.8-0.1l4.6,2.9l4.2-0.7l2.3,2.5l3.2,1.9l5.3,0.2l2.7,3.2
					l9.2-2.9l4-1.7l2.5,0.9c1.4,0.5,2.9,0.2,4-0.7l7-5.8l1.5-1.3l0.9-3.7l1.5-5.1l3.2-0.5l7.5,0.1l6.5,5.8l-2.7,3.5l-2.6,1.2
					l-4.8-0.1l-0.1,1.8l-1.8,2.7l1.8,2.1l3.4,2l2.7,1l3.6,3c0,0-0.9,3.5-0.9,3.8c0,0.3-2.5,12.5-2.5,12.5l-1.1,9.7l-0.5,5.1l1.7,3.6
					l1.3,2.6l2.3,4.8l2.6,2.2l1.9,3.1l-1.8,3.4l-2.2,2.2l-4.8,4.5l-3.3,3.5l-8.5,3l-6.8,4.2l-2.7,3.5l-0.1,4.3l2.5,3.8l3.2,0.1
					l4.5,3l-3.5,3.5l-0.4,5l-0.1,3.4l-2,4.2l-0.6,2.2l-4,0.6l0.2,3.8l2.9,3.4l-3.3,2.5l-2.9,3.6l-3.2,2.7l-3.7,1.9l-4.9-0.7
					l-4.8-7.9l-7-4.5l-5.6-2.6l-2.8-2.1l-6.2-0.2l-1.9-2.7l-5.1-7.1c0,0-6.9,6.6-7.1,6.9c-0.2,0.3-2.7,0.8-2.7,0.8l-1.5-2l-1.6-3.4
					l-2.4-1.9l-6.4-0.7l-0.1-1.9l-0.1-3.2l-3.6-3.7l-5.1-0.6l-4-1.1l-1.5-5.6l2.3-6.3l4.9,0.2l1.1-1.9l-0.8-4.7v-4.4l1.5-3.9
					l3.7,1.6l5,0.7l2.3-4.1l-0.1-3.1l-2-5.5l-2.7-3.2l-3.6-2.2l0.2-4.3l3.4-1.6l5-8.1l1.6-1.7l-3.9-4.9l-3.3-2.9l0.4-4.2l0.4-5.1
					l-0.9-3.3l-0.4-4.3L244.9,212.8z"/>
				<path class="st0" d="M336.1,128.9l0.3,3.5l-2.3,3.1l-1.9,4.2l0.3,3.1l-0.3,1.7l0.7,1.8l-0.1,2.9l1.6,4.3l2.5,0.3l5.4,1.7
					l1.1,3.2l4.1,1l1.4,2.2l-2.6,2.6l2,1.8l-0.5,4.2l-4.4,2.4l-1.4,4.4l3.9,6.4l1.6,7.1l-5.5,9l-0.3,5.8l-2.6-2.2l-3.9,4.3l-3.8,0.1
					h-2.4l-0.3,2.5l-2,2.4l2.9,2.4l4.3,2l4.6,3.2l-1.6,7.1L334,244c0,0-0.3,6-0.3,6.7s2.2,6.4,2.2,6.4l2.8,5l3,3.5l1.4,2.2l-3.9,5.7
					l-4.3,4l3.2,0.6l2.9-0.5l-0.4,8.4c0,0-1.4,2.2-1.4,2.5c0,0.3,0.7,5,0.7,5l1.1,5l3,1.3l4.3-2l2.6,1.1h3c0,0,2.3-4.2,2.4-4.5
					c0.1-0.3,1.8-7.3,1.8-7.3l1.6-5.6l2.4-4.9l1.9,1.5l1.2,3l2.1-2.9l3.3,1.3l4.9,2.1c0,0,2,4.4,2.1,4.9c0.1,0.4,2.9,3.6,2.9,3.6
					l3.2-2.4l1.5,2.7l2.5-1.2l-0.1-7.7l2-6.7l4.1-5.9c0,0,2.2-4.7,2.2-5.2s-1.8-10.2-1.8-10.2l2.6-5.4l6.4-2v-5.6l1.5-4.5l4.5-1
					l0.5-10.3l4.2-3.4l4.2-5.3c0,0,2.7-8,2.7-8.5c0-0.4,0.8-6.8,0.8-6.8l4.3-6.1l4.8-1.4l4.7-3.3l4.6-0.5l4.2-3.9l0.5-4.5l-4-3.8
					l-0.6-5c0,0-1.1-4.3-1.1-4.7c0-0.3-0.3-6.9-0.4-7.3c-0.1-0.4,0-6.6,0.5-7.5c0.5-1,2-5.3,2-5.3v-3l-2.7-3.3l-5.6,0.2l-4.3-3.6
					c0,0,0.5-4,0.9-4.3c0.4-0.3,4.8-3.4,4.8-3.4l1.6-4.7c0,0-2.4-2.1-2.4-2.5c0-0.4,1.6-4.8,1.6-4.8l-1.8-2.9l-5.2-2.2l-5-4.2
					l-8.6-9.2h-3.5l-1.8,7.6l-6,4.7l-0.7,5.4l-4.7,3.8l-5.1-0.9l-4.9-0.1l-8.9,0.1l-5.1,1.3l-4.4,5l-5.4,3.7l-6.7,0.6l-3.4,2.2
					c0,0-4.9-2-5.5-2.2s-9.7-3.7-9.7-3.7L336.1,128.9z"/>
				<path class="st0" d="M465.2,172.1l6.3,3.8l-0.6,6l3.2,4.8l5.7,0.3l7.6,5.4h3.5l-0.6,5.4l-7.9,3.2v7.6v4.4l-3.8,3.2l-8.2,3.2
					l-7.3,3.2l-4.4,1.3l-6.9,2.5l-3.5,5.4l-1.9,5.4l5.4,5.4l-0.3,10.2l3.5,5.4l0.6,9.5l1.6,9.5l-5.4,0.3v6l3.5,3.5l7.6,0.3l3.2,2.2
					l-1.3,6.3l-4.7,4.1l-0.3,2.9l1.9,6l3.2,4.1l0.3,6l-2.8,6.3l-3.8,3.8l-2.2,7.3l-0.3,4.8l-4.1,5.1l-4.1,3.8l-0.3,6.3l1.3,6.7v5.4
					l-4.7,2.9l-4.4-4.4l-2.8-3.8l-4.1-0.6l-0.9,7.3l-2.8,5.7l-3.5,1l-6,1.3l-7.6,5.7l-4.4,3.8l-4.1,5.7l-4.7-3.5l-6.9-1.3l-2.2-4.8
					l7.3-1l2.5-5.1l-7.6-2.5h-9.5l-5.7-1.3l-6.6,2.9l-4.1-4.1l-0.6-4.1l4.4-10.8c0,0,4.4-4.8,4.4-5.7s3.8-13.3,3.8-13.3l1.9-10.2
					v-6.3l-5,1.9l-2.5,3.5L370,332l-3.2-2.5l-3.2,2.2l-3.8-0.3h-6.9l-2.8-1.3l5.7-5.7l1.3-5.7l-2.8-2.2l-2.5-1.6l1.6-4.8l-4.7-5.1
					l-4.1-4.1l-0.3-1.2l4.3-2l2.7,1.1l3-0.1l2.5-4.2l1.8-7.6l1.5-5.2l2.4-5.3l2.2,1.6l1.1,2.6l1.9-2.5l8.3,3.3l0.6,1.4l1.7,3.9
					l2.7,3.2l3.3-2.2l1.4,2.7l2.6-1.1l-0.3-7.9l0.9-2.4l1.2-4.5l5.1-7.6l1.2-3.4l-1.9-9.8l2.8-5.7l6.5-2l-0.2-5.5l1.6-4.8l4.5-0.8
					l0.6-10.2l4.3-3.5l4.4-5.3l2.5-8.5l0.8-6.8l4.4-6l4.9-1.7l4.7-3.1l4.8-0.5c0,0,3.9-3.1,3.9-4.1s0.4-4.5,0.4-4.5l5.1,0.2l0.9-6
					l3.8-0.6L465.2,172.1z"/>
				<polygon class="st0" points="490.7,192.4 490.1,197.8 482.2,201 482.2,208.6 482.2,213.1 478.4,216.2 470.2,219.4 463,222.6 
					458.6,223.8 451.6,226.4 448.2,231.8 446.3,237.2 451.6,242.6 451.3,252.7 454.8,258.1 455.4,267.6 457,277.1 451.6,277.5 
					451.6,283.5 455.1,287 462.7,287.3 465.8,289.5 464.5,295.8 459.8,300 459.5,302.8 461.4,308.9 464.5,313 464.9,319 462,325.3 
					458.2,329.2 456,336.5 455.7,341.2 461.1,342.8 464.9,347.2 466.3,349.5 468.6,355.8 475.6,355.5 480.3,350.7 482.5,359.9 
					485.7,361.8 493.2,364 498,365.3 500.2,357.9 503,352.9 500.5,346.9 504.6,339.3 507.4,337.1 511.2,338.7 515.3,333.9 
					520.7,327.3 522.6,314.9 522.6,306.6 528.8,297.6 533.3,287.9 537.1,278.4 542.4,268.9 549,260 556.9,246 561.7,234.9 
					556.3,231.8 549.5,231.4 546.5,230.2 544.6,222.6 541.2,217.2 539.9,214 533.3,212.1 526,216.5 521.5,209.8 517.8,208.3 
					520,200.1 512.5,201 508.7,197.8 508.7,188.9 503.3,186.7 498.6,184.8 492.9,188.9 				"/>
				<polygon class="st0" points="498,365.3 500.8,357 503,352.9 500.5,346.9 504.6,339.3 507.4,337.1 511.2,338.7 513.3,346.4 
					518,347.7 518.9,354.4 519.4,364.4 518.5,370.1 518,378.5 517.6,385.1 517.1,391.4 521.4,397.1 526,401.8 525.6,408.6 
					520.6,411.1 520.6,414.9 530.6,414.1 530.6,420.4 533.6,430.6 537.8,431.8 542,426.3 545.8,433.9 547,439.9 523.5,479.2 
					520.1,491.5 518,506.3 513.8,515.6 505,528.3 487.4,532.9 479.4,541.4 474.7,554.1 468,570.1 461.3,569.3 457.2,564.6 
					450.4,564.8 441.7,572.3 438.2,577.7 430.2,571 427.7,565.5 434.1,548.6 432.5,540.1 435.9,537.2 441.7,536.4 443.6,531.2 
					441.9,524.5 445.7,521.9 449.3,517.7 451.6,511.3 447.4,505.7 448.5,500.5 454.2,496.7 455.8,493.2 456.6,489.7 458.3,486.8 
					462.6,483.9 465.1,479.6 465.5,473.3 453.4,478.8 451.9,477.4 456.9,459.5 462.8,447.8 469.8,434.8 479.4,409.1 487.5,393.8 
					490.3,382.8 495.2,372.4 				"/>
				<path class="st0" d="M364.9,367.9l-6,7.8l-0.9,4.1l-1.3,5.9l9.2,1.3L354.7,399l1.2,5.5l-9.4-0.2l9.4-0.1h-9.2l-6.9,5.9l-5.3,7.6
					l-4.7,8.9c0,0-4.5,5.5-4.5,6.8s-7.4,14.4-7.4,14.4l-8.6,11.4l-1.7,4.2l-1.7,5.8l-7.4,9.6l4.2,3.8l5.7,4l4.7,3.1l1.2-3.5l2.4-4.4
					l6-8.4l4.2-5.8l4.2-4.7l4.2,0.2l5,0.4l4-5.5l-4.4-5.8l4.2,0.4l4.2-0.3l7.1-0.4l11-0.4l5.5-5.1l8.2-0.6l2,3.4l1.5,5.7l-1.9,3.6
					l-0.4,3.7l2.2,5.1l1.8,6.6l4.8,0.8l5.6,1.7l11-0.1l7.6,4.4l11.8-3.8l11.4,11l7.6-1.2l2.5-4.3l3.8-4.2l3.8-9.3l2.1-9.7l5.9-12.3
					l6.7-12.7l5.9-14.8l3.8-10.6l7.1-13.1l5.5-16.1l6-14.5l-2.4-0.2l-7.6-2.3l-6.1-2.9l-0.2-3.4l-1.4-5.7l-4.5,4.8l-7.3,0.3
					l-1.7-5.2l-6.1-7.9l-5-1.3l-8.4,8.8l-0.4,6.2l1.3,5.8l0.4,6.2l-4.9,3.2l-7.2-8.4l-4.2-0.7l-0.9,6.9l-1.9,4.1l-1,1.9l-9.4,2.2
					l-5.7,4.2l-6.3,5.3l-4.1,5.7l-5-3.6l-2.9-0.3l-3.9-1l-2.3-4.7l7.3-0.8l2.7-5.3l-1.7-0.6l-3-0.8l-2.9-1.1l-9.3,0.2l-5.5-1.3
					l-7.1,2.9l-3.6-4.1L364.9,367.9z"/>
				<polygon class="st0" points="229.2,303.7 226.3,307.5 226.4,312.3 222.1,313.8 215.8,318.1 215.8,326.9 212,334.1 208.2,340 
					205.7,340 201.9,345.5 197.3,347.2 192.1,343.2 185.6,346.7 185.9,353.6 177.1,354.3 172.6,356 165.7,361.5 164.1,368.4 
					160.7,374 154.3,374.8 149.4,385.7 146,397.1 151.2,397.8 157.6,393.4 164.3,389.6 167,390 170.8,394.2 176.3,394.2 
					185.1,392.5 189.7,392.5 193.5,398.8 188.9,403.5 188.9,410.3 191.8,411.5 196,411.9 193.9,418.3 194.8,420.4 196.9,422.1 
					203.6,422.9 210.7,422.9 216.2,420 223.4,418.7 230.5,419.6 237.2,411.9 246.9,409.4 250.3,404.3 256.1,403.9 259.1,395.5 
					259.1,389.1 262.4,387 272.1,388.7 275.8,389.3 280.9,384.4 280.5,380.6 273.1,375.2 277.9,367.5 281.5,362.5 288.9,362 
					293.4,360.2 299.4,359.5 305.3,357.4 305.3,350.6 297.8,348.5 297.7,339.5 292.7,331.6 283.9,326.1 277.4,322.3 271.3,321.9 
					264.1,312.2 254.2,320 251.9,315.5 248.8,312.7 242.8,311.7 242.2,306.8 238.6,303.1 230.8,302 				"/>
				<path class="st0" d="M174.6,398l-2.9,0.8l-2.5,2.1c0,0-1.7,0.4-1.7,1.7c0,1.3,0,1.3,0,1.3l-1.9,1.1l-2.3,0.6l-5.5,6.8l4.6,9.3
					l6.3,7.2l2.1,3.4l7.6-1.3l3.8,0.4l4.6,6.3l-5.9,3.8v8.9v11l2.7,14.4l4.7,11.4l8.2,6.8l2.9,0.7l2.8,0.2l-0.7-20.7l5.9-5.5l8-3.4
					l5.4-11l2.5-4.5c0,0,1.9-8.2,2.2-9.4c0.4-2.1,3.4-14,3.4-14l1.7-6.6l-7.1-1.4l-6.8,1.6l-5.9,3l-11.6-0.4h-1.9l-2.1-1.5l-1.2-2.6
					l2.1-6.3l-4.2-0.4l-2.7-1l-0.1-6.8l4.5-5l-3.8-6.3l-4.5-0.2l-8.9,1.9L174.6,398z"/>
				<polyline class="st0" points="281,452.5 287.2,447.5 289,448.8 295.7,456.4 300.7,457.6 309.1,459.3 305.7,469.5 298.2,479.2 
					294.4,486.8 287.7,497.8 281.8,502.9 275.9,504.1 260.8,498.7 266.8,486.5 260.8,483.8 258.2,474.5 258.2,468.6 248.3,475.4 
					242.7,475.4 235.1,472.9 232.5,468.5 232.2,462.7 232.2,455 230.1,452.6 226.4,451 223.4,449.6 225.5,440.3 227.6,431.5 
					230.1,422.5 230.5,419.7 237.4,412.1 241.4,411.1 247.5,415.3 254.5,420 256.5,429.2 262.1,431.8 268.8,429.5 273.6,427.9 
					281.4,426.6 288.1,428.8 287.3,436.1 282.6,443.6 279.5,449.1 				"/>
				<path class="st0" d="M304.9,548.1l0.4,7.6l4.2,5.1l5.5-10.6l5,4.7c0,0-0.8,5.1-0.8,6.8c0,1.7-2.5,6.8-2.5,6.8l3.4,2.5l5.9-0.4
					l4.6-3.4l3.8,3.4l2.5-3.8c0,0,3.4-2.1,4.6-2.1s10.5-2.5,10.5-2.5l0.4-2.5l3.8-8l-0.4-6.8l6.3-4.2l6.7,1.3l5,8l8.8-2.1l0.4-3
					l8,0.4l1.7,9.3l-1.3,6.8c0,0,5-1.7,6.3-1.7s9.7,0.4,9.7,0.4s11.8,3.4,13,4.2c1.3,0.8,7.1,1.3,7.1,1.3l3.9-10l2.6-6.8l-0.6-2.6
					l-1.2-6.6l3.9-2.3l5-0.8l2.3-5.3l-1.7-6.2l6.8-6.4l2.9-7.2l-4.2-5.8l0.9-5.3l6-3.6l5.6-8.6l1.3-1.9l1.5-2.3l2.4-4.3l0.2-5.9
					l-12,5.3l-1.3-1.5l-7,9.4l-7.6,0.8l-6.2-5.2l-5.1-5.4l-12.2,3.4l-7.1-3.8h-10.5l-10.9-2.5l-1.7-6.3l-3.4-5.9l3.4-6.8l-3.4-9.3
					l-8.4,0.8l-5.5,5.1l-10.9,0.4l-15.3,0.6l4.3,5.6l-4.2,6l-8-1.3l-2.8,1.3c0,0-2.9,3.4-4.2,5.9c-1.3,2.5-6.3,7.6-6.7,8.9
					s-4.2,6.3-4.6,8.5c-0.4,2.1-5.5,12.3-5.5,12.3s-2.5,6.8-3.8,8.9c-1.3,2.1-6.3,11-7.1,12.3c-0.8,1.3-5,8.9-5,8.9l-3.8,9.7l-0.8,3
					l0.8,4.7l11.8,0.4L304.9,548.1z"/>
				<polygon class="st0" points="219.1,536.6 216.6,544.5 215.5,546.5 210.4,545.8 206.8,546.7 194.5,557.7 189.9,562.8 
					188.5,567.6 184.7,566.7 168.3,558.7 160.3,553.2 169.5,538.4 172.9,535.4 161.6,518.1 162.8,510.5 169.1,509.3 182.2,512.2 
					195.2,510.1 196.4,497.4 200.9,507.9 203.9,516.2 207.5,527.3 208.4,529.4 				"/>
				<path class="st0" d="M222.5,516.8l7-2.2l2.6-1.1l5.5-7.7L248,504l11,5.4l2.6-7l-0.8-4l5.9-12.1l-5.9-2.5l-2.5-9.3v-5.9l-9.8,6.9
					l-5.9,0.1l-7.5-2.6l-2.3-4.3l-0.5-8.9l-0.1-4.8l-2-2.4l-6.7-3l-7.8,15.6l-8.1,3.3l-3.2,3.6l-2.7,2.1c0,0,0.4,13.1,0.4,14.8
					c0,1.7,0,5.9,0,5.9l-5-0.7l-0.4,3.2l3.4,8.5c0,0,4.2,9.3,4.2,10.6c0,1.3,4.2,12.7,4.2,12.7l11.2,7.7L222.5,516.8z"/>
				<path class="st0" d="M298.2,479.2l10.1,7.6l4.7,3.2l-5.9,12.6l-8,15.5l-8,13.6l-3.3,10.3l0.6,5.6l15.8,0.4l1.1,8.1l-5.5,11
					c0,0-2.1,8.5-2.1,9.7c0,1.3-6.1,6.2-6.1,6.2l-2.5,0.4l-8.6-3.3l-2.2,7.8l-2.4,7l-5.5,4.2l-11.8,0.8c0,0-3,2-5.1,2.9
					s-11.2-4.1-11.2-4.1l-7.1,0.8l-4.6-3.8l-8.4-1.7l-12.2-0.8l-10-2.6l-4.3,1l-8.7-1.9l-4.7-1.5l3.4-9.6l4.5-16l6.3-6.8l10.5-9.2
					l3.6-1.1l5,1.2l3.8-10.2l1.6-9.8l1.7-10.1l9.2-3l5.9-8l10.5-1.7l10.8,5.3l2.6-7l-0.9-3.8l15.3,5.5l5.8-1.4l5.8-4.9l6.1-9.8
					L298.2,479.2z"/>
				<polygon class="st0" points="168.8,432.1 158.4,433 154.8,441.6 156.5,447.1 152.7,452.1 159.5,459.7 152.3,463.5 147.7,461 
					144.3,466.9 138.9,472 144.3,479.2 150.2,480.9 158.6,480.9 166.2,480.9 175.8,486.8 180.1,486.8 180.1,498.7 180.9,506.3 
					182.1,512.3 195.2,510.1 196.2,502.5 197,494.2 188.2,487.3 183.5,476.3 182,467.5 181.3,459.7 180.9,448.1 180.8,442.1 
					186.8,438 182.2,431.4 178.4,431 171,432.3 				"/>
				<path class="st0" d="M79.7,428.2l6.1,1.3l4.5-6.6l2.1-1.7l4.3,7l3.2,4.9l3.1,3.6L98,442l-2.9,2.5l1.9,7.6l5.6-1.6
					c0,0,3.4-3.4,4.7-3.4s6.1,3.8,6.1,3.8l0.9,12.7l1.7,5.1l4.4,5.2l3.3,8.2l1,4.7l-0.6,5l-8.7,8.5l-11.7,14.8l-4.3,2L94,520
					l-7.1,3.6l-11.7,0.1l-0.3-1.9l-2.1-13.5l2.9-10.7l18.7-10.5l-0.1-11.7l-6.7-11l-3.6-15.6l-5.3-16.6L79.7,428.2z"/>
				<polygon class="st0" points="75.3,523.6 71.9,529.5 60.7,524.9 48.3,513.1 42.6,510.4 28.3,513.3 16.3,526.8 13.4,538 
					16.3,549.5 23.8,551.7 34.9,549 48.8,549.8 63.1,551.5 72.3,555.3 81.2,556.6 91.2,543.1 105.5,529.5 111.9,521.9 103.9,514.9 
					87,523.6 				"/>
				<path class="st0" d="M30.8,571l-9.2,11.8L12,592l-3.8,7.3l3.2,7.3c0,0,6.8,10.9,6.8,12.2c0,1.3,0,6.8,0,6.8s10.8-5,12-5
					s10.5,0,10.5,0l4.8,0.8l2.9,3l6.1-1.9l10.7-2.8l10.7-3.1l13.2-3.2l-4.7-9.1l-2.3-0.6l-9.3,1.2L61.4,607l-5.5,3.3l-2.4-2.7
					l-3.9-0.7l-7.6-4l-2.7-11l0.6-12.5l-4.4-5.2L30.8,571z"/>
				<polygon class="st0" points="113.3,450.6 117.8,447.4 120.5,444.5 124,440.2 129.3,439.7 133.7,436.9 141.4,440.2 147.4,443.7 
					150.5,447.2 152.7,451.8 159.4,459.8 155.3,461.9 152.2,463.3 147.6,460.8 144.5,466.7 141.2,469.8 139,471.9 144.8,479.5 
					146.2,479.8 151.3,480.9 159.6,480.9 166,480.6 175.7,486.7 180.1,486.7 180.1,494.5 180.8,506.7 182,512.1 169.1,509.3 
					162.5,510.7 160.6,507.4 159,501.3 158.1,497.9 151.8,497.6 146.7,497.4 143.3,498.8 140.1,500.4 134.1,499.5 128.4,495.1 
					124,491.6 124.7,486.2 123.7,482.1 120.3,473.8 115.8,468.1 114.3,463.7 				"/>
				<polyline class="st0" points="112,522.2 120.9,529.6 131.8,538.8 140.1,545.5 150.5,553.4 145.5,562.6 142.6,572.5 141.7,578.8 
					140.4,586.7 133.7,586.3 131.3,582.6 126.6,573.7 123,570.8 109.2,565.8 104.2,571.8 101,575.3 92.3,576.3 82.7,575.3 
					77.8,571.5 76.1,564 81.7,556.2 88.1,547.1 96,538.1 104.3,530.9 111.4,522.7 				"/>
				<polygon class="st0" points="158.1,497.9 146.7,497.3 140.4,500.4 134.3,499.7 131.6,497.6 124.9,492.4 124,491.6 112.2,503.5 
					103.9,514.7 110.2,520.4 117.8,526.9 131.8,538.8 150.8,553.4 152.4,549.9 154.5,545.6 156.9,537.6 158.6,532.2 160.9,520.7 
					162.7,510.8 160.5,507.3 				"/>
				<path class="st0" d="M140.4,586.3l6.9-1.2l0.4,9.5l6.9-6.3c0,0,6.4,0.2,7.6,1.2c1.3,1,5,0.4,5,0.4l6.9-1.3l7.8-0.2
					c0,0,3.5-9,3.5-9.9c0-1,2.8-10.8,2.8-10.8l-9.2-3.6l-11-5.2l-7.8-5.6c0,0,4.7-7.9,5.7-8.9c0.9-1,6.7-8.7,6.7-8.7l-3.3-5.1
					l-5.7-12.4l-1.7-2.5l-4,18.4c0,0-2.8,10.2-3.5,11.7s-7.3,14-7.3,14l-4,8.6l-1.6,10.5L140.4,586.3z"/>
				<polygon class="st0" points="55,573.5 67.3,569.6 76,564.3 81.1,556.8 72.7,555.5 62.9,551.4 55.1,550.7 50.3,550.1 35.5,548.8 
					29.8,550.3 23.8,551.6 16.2,549.6 30.7,563.9 30.8,571 35.2,574 39.5,579.4 39.2,591.8 41.7,602.9 49.6,607 53.5,607.3 
					51.5,590.9 52.5,578.3 				"/>
				<polygon class="st0" points="82.5,575.3 92.2,576.2 101,575.3 105.7,580.7 109.8,589 109.8,595.3 110.8,598.5 111.4,606.1 
					101.7,609.3 89.4,613.4 84.6,604.2 82.1,603.5 72.6,604.8 61.6,607 55.9,610.2 53.4,607.3 51.5,590.9 52.5,578.2 55.3,573.4 
					67.3,569.6 76,564.1 77.6,571.3 				"/>
				<path class="st0" d="M147.4,585.1l0.3,12.1l-5.3,10.6L137,611c0,0-1.8,3.5-3.1,4.8c-1.3,1.3-5.5,3.6-5.5,3.6l-7.6-4.1l-2.2-7.9
					l-7.3-1.3l-0.2-5.2l-0.3-3.1l-0.9-2.5v-6.6l-1.3-3.3l-4.7-6.7l-2.8-3.5l6-6.3l2.2-3.2l13.2,5.1l4.1,2.9c0,0,2.2,5.1,2.5,6
					c0.3,1,4.4,6.7,4.4,6.7l6.9,0.3L147.4,585.1z"/>
				<path class="st0" d="M128.2,623.4l-1.3,9.5l-8.2-1.3l-4.3-0.5l-4.3,0.2l-12-0.6h-3.5l1.3-7.6l-5.7,3.2l-12.9-0.6l-2.2-1
					l-4.1,6.3L60.5,630L50,629l-1.6-4.7c0,0,12.5-3.9,15.7-4.5c3.2-0.6,25-6.5,25-6.5l3.1-0.9l5.1-1.7l13.7-4.4l7.6,1.1l2.2,7.9
					l7.7,4.2L128.2,623.4z"/>
				<path class="st0" d="M126.9,633c0,0,0.6,7,0.3,7.9c-0.3,1-6,8.9-6,8.9l-9.1,3.5l-12.3-1.9l-7.1-4.2l-0.2-5.9l0.9-6l1.3-4.4
					l13.7,0.7l5.5-0.4l9.5,1.3L126.9,633z"/>
				<path class="st0" d="M50.1,629l21,2.1l4.3,5.2l-1.3,5.2l-4.3,3.6l-0.9,8.5l4.2,5.4l-5.2,5.2l-13.2-2.2l-5.7-7.3
					c0,0-2.8-5.3-3.1-6.3c-0.3-1,0.9-12.6,0.9-12.6L50.1,629z"/>
				<path class="st0" d="M71.1,631.1l4-6.3l3.2,1l12.3,0.6l5.4-3.2l-1.3,7.6c0,0-2.5,8.6-2.2,10.5c0.3,1.9-0.1,6-0.1,6L80,656.8
					l-6.8,1.9l-4.3-5.4l0.9-8.2l2.8-2.5l1.6-2.3l1.3-3.7L71.1,631.1z"/>
				<g>
					<defs>
						<filter id="Adobe_OpacityMaskFilter" filterUnits="userSpaceOnUse" x="240.5" y="277" width="139.5" height="183.1">
							<feFlood  style="flood-color:white;flood-opacity:1" result="back"/>
							<feBlend  in="SourceGraphic" in2="back" mode="normal"/>
						</filter>
					</defs>
					<mask maskUnits="userSpaceOnUse" x="240.5" y="277" width="139.5" height="183.1" id="SVGID_1_">
						<g class="st3">
							
								<image style="overflow:visible;" width="144" height="188" xlink:href="F4CBD059B7F5F8F9.jpg"  transform="matrix(1 0 0 1 238.1684 274.7383)">
							</image>
						</g>
					</mask>
					<g class="st4">
						<polygon class="st1" points="313,292.3 315.7,288.6 322.6,284.4 329.3,281.7 335.2,277.6 338.3,278.2 341.1,277.9 340.6,286 
							339.3,288.4 340.2,294.3 340.7,297.1 341.1,298.5 344.2,299.8 344.5,300.9 348.1,304.7 353.2,310.4 351.7,314.9 357,318.7 
							356,324.1 350.1,330.1 355.9,331.3 363.7,332 366.6,329.6 370.1,332 371.7,327.5 375.9,322.7 379.4,321.9 379.5,328.6 
							377.7,336.8 374.7,348.6 372.6,354 369.3,357.4 364.7,368 358.8,375.7 356.6,385.7 365.7,386.9 354.9,398.8 355.8,404.3 
							346.5,404.3 339,410.7 332.2,421.7 325.1,433.5 319.6,444.9 310.8,458 309,459.5 296,456.4 290.2,450.9 287.2,447.5 
							280.9,452.6 279.3,449.2 287.2,436.1 288.1,428.5 281.4,426.5 272.1,428.3 262.1,431.9 256.5,429.3 254.5,420 241.4,411.1 
							242.7,410.4 247.1,409.3 249.9,404.3 256.2,404.1 259.1,395.2 259.4,389 262.8,387.1 276.1,389.1 281,384.4 280.7,380.5 
							273.4,375.2 275.9,370.1 281.4,362.4 288.9,362 293.7,360.1 299.4,359.8 305.4,357.3 305.3,350.7 297.8,348.4 297.8,342.3 
							297.8,339.7 302.6,340.5 306.7,338.1 312.6,331.9 315.4,329.4 312.6,326 312.6,322.3 316.4,321.5 319.2,315.1 319.4,307.1 
							323.1,303.3 318.6,300.3 315.2,300.4 312.7,296.4 						"/>
						<polygon class="st2" points="313,292.3 315.7,288.6 322.6,284.4 329.3,281.7 335.2,277.6 338.3,278.2 341.1,277.9 340.6,286 
							339.3,288.4 340.2,294.3 340.7,297.1 341.1,298.5 344.2,299.8 344.5,300.9 348.1,304.7 353.2,310.4 351.7,314.9 357,318.7 
							356,324.1 350.1,330.1 355.9,331.3 363.7,332 366.6,329.6 370.1,332 371.7,327.5 375.9,322.7 379.4,321.9 379.5,328.6 
							377.7,336.8 374.7,348.6 372.6,354 369.3,357.4 364.7,368 358.8,375.7 356.6,385.7 365.7,386.9 354.9,398.8 355.8,404.3 
							346.5,404.3 339,410.7 332.2,421.7 325.1,433.5 319.6,444.9 310.8,458 309,459.5 296,456.4 290.2,450.9 287.2,447.5 
							280.9,452.6 279.3,449.2 287.2,436.1 288.1,428.5 281.4,426.5 272.1,428.3 262.1,431.9 256.5,429.3 254.5,420 241.4,411.1 
							242.7,410.4 247.1,409.3 249.9,404.3 256.2,404.1 259.1,395.2 259.4,389 262.8,387.1 276.1,389.1 281,384.4 280.7,380.5 
							273.4,375.2 275.9,370.1 281.4,362.4 288.9,362 293.7,360.1 299.4,359.8 305.4,357.3 305.3,350.7 297.8,348.4 297.8,342.3 
							297.8,339.7 302.6,340.5 306.7,338.1 312.6,331.9 315.4,329.4 312.6,326 312.6,322.3 316.4,321.5 319.2,315.1 319.4,307.1 
							323.1,303.3 318.6,300.3 315.2,300.4 312.7,296.4 						"/>
					</g>
				</g>
			</g>
			<polygon class="st0" points="313,292.3 315.7,288.6 322.6,284.4 329.3,281.7 335.2,277.6 338.3,278.2 341.1,277.9 340.6,286 
				339.3,288.4 340.2,294.3 340.7,297.1 341.1,298.5 344.2,299.8 344.5,300.9 348.1,304.7 353.2,310.4 351.7,314.9 357,318.7 
				356,324.1 350.1,330.1 355.9,331.3 363.7,332 366.6,329.6 370.1,332 371.7,327.5 375.9,322.7 379.4,321.9 379.5,328.6 
				377.7,336.8 374.7,348.6 372.6,354 369.3,357.4 364.7,368 358.8,375.7 356.6,385.7 365.7,386.9 354.9,398.8 355.8,404.3 
				346.5,404.3 339,410.7 332.2,421.7 325.1,433.5 319.6,444.9 310.8,458 309,459.5 296,456.4 290.2,450.9 287.2,447.5 280.9,452.6 
				279.3,449.2 287.2,436.1 288.1,428.5 281.4,426.5 272.1,428.3 262.1,431.9 256.5,429.3 254.5,420 241.4,411.1 242.7,410.4 
				247.1,409.3 249.9,404.3 256.2,404.1 259.1,395.2 259.4,389 262.8,387.1 276.1,389.1 281,384.4 280.7,380.5 273.4,375.2 
				275.9,370.1 281.4,362.4 288.9,362 293.7,360.1 299.4,359.8 305.4,357.3 305.3,350.7 297.8,348.4 297.8,342.3 297.8,339.7 
				302.6,340.5 306.7,338.1 312.6,331.9 315.4,329.4 312.6,326 312.6,322.3 316.4,321.5 319.2,315.1 319.4,307.1 323.1,303.3 
				318.6,300.3 315.2,300.4 312.7,296.4 			"/>
		</g>
	</g>
</g>
</svg>
